<?xml version="1.0" encoding="UTF-8" standalone="no"?>
<!DOCTYPE svg PUBLIC "-//W3C//DTD SVG 1.1//EN"
 "http://www.w3.org/Graphics/SVG/1.1/DTD/svg11.dtd">
<!-- Generated by graphviz version 2.49.0 (20210828.1703)
 -->
<!-- Pages: 1 -->
<svg width="294pt" height="220pt"
 viewBox="0.00 0.00 294.29 220.00" xmlns="http://www.w3.org/2000/svg" xmlns:xlink="http://www.w3.org/1999/xlink">
<g id="graph0" class="graph" transform="scale(1 1) rotate(0) translate(4 216)">
<polygon fill="white" stroke="transparent" points="-4,4 -4,-216 290.29,-216 290.29,4 -4,4"/>
<!-- pooled_mean -->
<g id="node1" class="node">
<title>pooled_mean</title>
<ellipse fill="white" stroke="black" cx="59.79" cy="-178" rx="59.59" ry="18"/>
<text text-anchor="middle" x="59.79" y="-174.3" font-family="Times,serif" font-size="14.00">pooled_mean</text>
</g>
<!-- μ -->
<g id="node2" class="node">
<title>μ</title>
<ellipse fill="white" stroke="black" cx="59.79" cy="-90" rx="27" ry="18"/>
<text text-anchor="middle" x="59.79" y="-86.3" font-family="Times,serif" font-size="14.00">μ</text>
</g>
<!-- pooled_mean&#45;&gt;μ -->
<g id="edge1" class="edge">
<title>pooled_mean&#45;&gt;μ</title>
<path fill="none" stroke="black" d="M59.79,-159.6C59.79,-147.75 59.79,-131.82 59.79,-118.29"/>
<polygon fill="black" stroke="black" points="63.29,-118.08 59.79,-108.08 56.29,-118.08 63.29,-118.08"/>
</g>
<!-- y -->
<g id="node4" class="node">
<title>y</title>
<ellipse fill="grey" stroke="black" cx="95.79" cy="-18" rx="27" ry="18"/>
<text text-anchor="middle" x="95.79" y="-14.3" font-family="Times,serif" font-size="14.00">y</text>
</g>
<!-- μ&#45;&gt;y -->
<g id="edge2" class="edge">
<title>μ&#45;&gt;y</title>
<path fill="none" stroke="black" d="M68.14,-72.76C72.51,-64.28 77.94,-53.71 82.84,-44.2"/>
<polygon fill="black" stroke="black" points="86.03,-45.64 87.49,-35.15 79.8,-42.44 86.03,-45.64"/>
</g>
<!-- σ -->
<g id="node3" class="node">
<title>σ</title>
<ellipse fill="white" stroke="black" cx="131.79" cy="-90" rx="27" ry="18"/>
<text text-anchor="middle" x="131.79" y="-86.3" font-family="Times,serif" font-size="14.00">σ</text>
</g>
<!-- σ&#45;&gt;y -->
<g id="edge3" class="edge">
<title>σ&#45;&gt;y</title>
<path fill="none" stroke="black" d="M123.45,-72.76C119.08,-64.28 113.65,-53.71 108.75,-44.2"/>
<polygon fill="black" stroke="black" points="111.79,-42.44 104.1,-35.15 105.56,-45.64 111.79,-42.44"/>
</g>
<!-- distribution_description_node -->
<g id="node5" class="node">
<title>distribution_description_node</title>
<text text-anchor="start" x="145.29" y="-196.8" font-family="Times,serif" font-size="14.00">pooled_mean ~ Normal</text>
<text text-anchor="start" x="145.29" y="-181.8" font-family="Times,serif" font-size="14.00">μ ~ Normal</text>
<text text-anchor="start" x="145.29" y="-166.8" font-family="Times,serif" font-size="14.00">σ ~ HalfNormal</text>
<text text-anchor="start" x="145.29" y="-151.8" font-family="Times,serif" font-size="14.00">y ~ Normal</text>
</g>
</g>
</svg>
